<?xml version="1.0" encoding="UTF-8"?>
<svg width="20px" height="20px" viewBox="0 0 13 13" version="1.1" xmlns="http://www.w3.org/2000/svg" xmlns:xlink="http://www.w3.org/1999/xlink">
    <!-- Generator: Sketch 57.1 (83088) - https://sketch.com -->
    <title>delete</title>
    <desc>Created with Sketch.</desc>
    <g id="Logo" stroke="none" stroke-width="1" fill="none" fill-rule="evenodd">
        <g id="Artboard-Copy-4" transform="translate(-949.000000, -1092.000000)" fill="#01FFC8" fill-rule="nonzero">
            <path d="M961.722581,1102.59375 C961.777268,1102.66406 961.808518,1102.74219 961.808518,1102.83594 C961.808518,1102.92969 961.777268,1103 961.722581,1103.07031 L960.070313,1104.72258 C960,1104.77727 959.929687,1104.80852 959.835937,1104.80852 C959.742187,1104.80852 959.664062,1104.77727 959.59375,1104.72258 L955.5,1100.62883 L951.40625,1104.72258 C951.335938,1104.77727 951.257812,1104.80852 951.164062,1104.80852 C951.070312,1104.80852 951,1104.77727 950.929688,1104.72258 L949.277419,1103.07031 C949.222732,1103 949.191482,1102.92969 949.191482,1102.83594 C949.191482,1102.74219 949.222732,1102.66406 949.277419,1102.59375 L953.371169,1098.5 L949.277419,1094.40625 C949.222732,1094.33594 949.191482,1094.25781 949.191482,1094.16406 C949.191482,1094.07031 949.222732,1094 949.277419,1093.92969 L950.929688,1092.27742 C951,1092.22273 951.070313,1092.19148 951.164063,1092.19148 C951.257813,1092.19148 951.335938,1092.22273 951.40625,1092.27742 L955.5,1096.37117 L959.59375,1092.27742 C959.664063,1092.22273 959.742188,1092.19148 959.835938,1092.19148 C959.929688,1092.19148 960,1092.22273 960.070313,1092.27742 L961.722581,1093.92969 C961.777268,1094 961.808518,1094.07031 961.808518,1094.16406 C961.808518,1094.25781 961.777268,1094.33594 961.722581,1094.40625 L957.628831,1098.5 L961.722581,1102.59375 Z" id="delete" transform="translate(955.500000, 1098.500000) rotate(-270.000000) translate(-955.500000, -1098.500000) "></path>
        </g>
    </g>
</svg>