<?xml version="1.0" encoding="UTF-8"?>
<svg width="26px" height="30px" viewBox="0 0 26 30" version="1.1" xmlns="http://www.w3.org/2000/svg" xmlns:xlink="http://www.w3.org/1999/xlink">
    <!-- Generator: Sketch 57.1 (83088) - https://sketch.com -->
    <title>Shape</title>
    <desc>Created with Sketch.</desc>
    <g id="Symbols" stroke="none" stroke-width="1" fill="none" fill-rule="evenodd">
        <g id="nav" transform="translate(-55.000000, -40.000000)" fill="#FF5001" fill-rule="nonzero">
            <g id="logo" transform="translate(55.000000, 40.000000)">
                <g id="Group">
                    <g id="noun_Kettlebell_330963">
                        <path d="M14.0876612,29.3819288 C12.5859692,29.3819288 11.1259908,29.4225879 9.62429881,29.3819288 C6.8294831,29.3006105 4.9106544,27.8775409 3.61753071,25.5599704 C2.6164027,23.8116277 2.44954803,21.9413077 2.7415437,19.9896693 C2.8666847,19.2171458 2.95011204,18.4852814 3.03353937,17.7127579 C3.07525304,17.1435301 2.95011204,16.6149614 2.65811636,16.0863927 C1.69870202,14.5006865 0.781001335,12.8336621 0.322150994,11.0040012 C-0.178413013,8.9710446 -0.136699346,6.97874714 0.739287667,5.06776795 C1.78212935,2.79085657 3.65924438,1.40844608 6.07863708,0.798559107 C10.4168585,-0.299237452 14.7967936,-0.25857832 19.135015,0.879877371 C21.512694,1.48976435 23.389809,2.8315157 24.4743644,5.06776795 C25.4337787,7.14138367 25.392065,9.25565852 24.641219,11.3292742 C24.140655,12.7523439 23.389809,14.0940952 22.638963,15.3951874 C22.138399,16.2896883 21.9715443,17.1841892 22.26354,18.2006675 C22.8475313,20.2742832 22.9309587,22.347899 22.0549717,24.3808556 C21.262412,26.2105165 20.136143,27.7962226 18.2590279,28.7313827 C17.2996136,29.2192922 16.2567719,29.3819288 15.1722166,29.3819288 C14.7967936,29.3819288 14.4630842,29.3819288 14.0876612,29.3819288 C14.0876612,29.3819288 14.0876612,29.3819288 14.0876612,29.3819288 Z M20.2999997,8.39113711 C20.1761965,7.78115701 20.093661,7.17117692 19.8460547,6.60186216 C19.2683066,5.21924061 18.0302748,4.69059119 16.6271722,4.52792983 C14.3987152,4.24327245 12.1289903,3.99928041 9.85926554,4.44659915 C8.70376928,4.69059119 7.50700529,4.85325255 6.35150902,5.17857527 C5.31981593,5.50389798 4.5769969,6.2358741 4.32939056,7.29317294 C3.95798104,9.04178255 4.411926,10.6277308 5.36108365,12.091683 C5.60868999,12.4983364 6.06263496,12.6609978 6.55784764,12.5796671 C6.88798943,12.4983364 7.21813122,12.3763404 7.54827301,12.2543444 C8.99264334,11.6443643 10.4782814,11.2783762 12.0877226,11.1970456 C13.9035025,11.1563802 15.6780146,11.5223683 17.3287235,12.2136791 C18.3604166,12.6609978 19.0619679,12.3763404 19.5159129,11.3597069 C19.9698579,10.4650694 20.2174642,9.44843595 20.2999997,8.39113711 Z" id="Shape"></path>
                    </g>
                </g>
            </g>
        </g>
    </g>
</svg>