<?xml version="1.0" encoding="UTF-8"?>
<svg width="145px" height="171px" viewBox="0 0 145 171" version="1.1" xmlns="http://www.w3.org/2000/svg" xmlns:xlink="http://www.w3.org/1999/xlink">
    <!-- Generator: Sketch 57.1 (83088) - https://sketch.com -->
    <title>Group 7</title>
    <desc>Created with Sketch.</desc>
    <defs>
        <path d="M126.369037,57.2324732 C128.068266,57.2142247 129.613179,58.1922893 130.324735,59.7113256 C131.095573,61.356955 130.855167,63.1637961 129.876418,64.3887125 L54.5127494,158.707275 C53.993727,159.25644 53.5424246,159.618732 52.9053211,159.915818 C51.6300901,160.507794 50.2452022,160.534233 49.0056996,159.87673 C47.2057414,159.017062 46.0701909,156.924288 46.6338695,154.813265 L60.1978831,102.899232 L4.38729564,103.070663 C2.68806642,103.088912 1.14315377,102.110847 0.431598919,100.59181 C-0.279944247,99.0727679 -0.0988338699,97.1393401 0.879915071,95.9144237 L76.3028793,1.72244814 C77.545605,0.0667635184 79.7638566,-0.500649828 81.6231106,0.485604741 C83.5505915,1.28607436 84.5586193,3.43804699 84.1224634,5.48987144 L70.5584498,57.4039042 L126.369037,57.2324732 Z" id="path-1"></path>
        <path d="M126.575243,59.0562476 C128.274472,59.0379991 141.613179,66.1922893 142.325643,67.710902 C143.095573,69.356955 142.855167,71.1637961 141.876418,72.3887125 L66.5127494,166.707275 C65.993727,167.25644 65.5424246,167.618732 64.9053211,167.915818 C63.6300901,168.507794 62.2452022,168.534233 61.0056996,167.87673 C59.2057414,167.017062 48.0701909,157.924288 48.6338695,155.813265 L72.9088969,116.433888 L20.0438415,116.433888 C18.3446123,116.452136 1.47197918,100.218291 2.45072812,98.9933748 C37.7756559,53.8049587 62.99506,21.7732651 78.1089405,2.89829409 C80.5791079,-0.186574589 91.7638566,7.49935017 93.6231106,8.48560474 C95.5505915,9.28607436 96.5586193,11.438047 96.1224634,13.4898714 L82.5584498,65.4039042 L126.575243,59.0562476 Z" id="path-3"></path>
    </defs>
    <g id="Logo" stroke="none" stroke-width="1" fill="none" fill-rule="evenodd">
        <g id="Artboard-Copy-3" transform="translate(-1070.000000, -788.000000)">
            <g id="logo" transform="translate(1057.000000, 771.000000)">
                <g id="Group-8">
                    <g id="Group-7" transform="translate(13.204007, 17.084412)">
                        <mask id="mask-2" fill="white">
                            <use xlink:href="#path-1"></use>
                        </mask>
                        <use id="Combined-Shape" fill="#01FFC8" fill-rule="nonzero" xlink:href="#path-1"></use>
                        <mask id="mask-4" fill="white">
                            <use xlink:href="#path-3"></use>
                        </mask>
                        <use id="Combined-Shape-Copy" stroke="#01FFC8" stroke-width="4" fill-rule="nonzero" xlink:href="#path-3"></use>
                    </g>
                </g>
            </g>
        </g>
    </g>
</svg>