<?xml version="1.0" encoding="UTF-8"?>
<svg width="20px" height="20px" viewBox="0 0 16 15" version="1.1" xmlns="http://www.w3.org/2000/svg" xmlns:xlink="http://www.w3.org/1999/xlink">
    <!-- Generator: Sketch 57.1 (83088) - https://sketch.com -->
    <title>r</title>
    <desc>Created with Sketch.</desc>
    <g id="Logo" stroke="none" stroke-width="1" fill="none" fill-rule="evenodd">
        <g id="Artboard-Copy-4" transform="translate(-920.000000, -1092.000000)" fill="#01FFC8" fill-rule="nonzero">
            <path d="M936,1098.25195 L936,1100.74805 C936,1100.88867 935.851562,1101 935.664062,1101 L920.335938,1101 C920.148438,1101 920,1100.88867 920,1100.74805 L920,1098.25195 C920,1098.11133 920.148438,1098 920.335938,1098 L935.664062,1098 C935.851562,1098 936,1098.11133 936,1098.25195 Z M933,1092.25195 L933,1094.74805 C933,1094.88867 932.879395,1095 932.727051,1095 L920.272949,1095 C920.120605,1095 920,1094.88867 920,1094.74805 L920,1092.25195 C920,1092.11133 920.120605,1092 920.272949,1092 L932.727051,1092 C932.879395,1092 933,1092.11133 933,1092.25195 Z M930,1104.25195 L930,1106.74805 C930,1106.88867 929.907227,1107 929.790039,1107 L920.209961,1107 C920.092773,1107 920,1106.88867 920,1106.74805 L920,1104.25195 C920,1104.11133 920.092773,1104 920.209961,1104 L929.790039,1104 C929.907227,1104 930,1104.11133 930,1104.25195 Z" id="r"></path>
        </g>
    </g>
</svg>