<?xml version="1.0" encoding="UTF-8"?>
<svg width="297px" height="263px" viewBox="0 0 297 263" version="1.1" xmlns="http://www.w3.org/2000/svg" xmlns:xlink="http://www.w3.org/1999/xlink">
    <!-- Generator: Sketch 57.1 (83088) - https://sketch.com -->
    <title>hero-image</title>
    <desc>Created with Sketch.</desc>
    <g id="Mockups" stroke="none" stroke-width="1" fill="none" fill-rule="evenodd">
        <g id="Landing-page" transform="translate(-622.000000, -151.000000)" fill="#FF5001" fill-rule="nonzero">
            <g id="hero-image" transform="translate(613.000000, 140.000000)">
                <path d="M80.8479654,147.917022 C73.9354147,147.917022 67.2148793,148.103722 60.3023286,147.917022 C47.4373037,147.543622 38.6046,141.009119 32.6521258,130.367213 C28.0437586,122.339109 27.2756975,113.750904 28.6198045,104.789299 C29.1958504,101.241998 29.579881,97.8813958 29.9639116,94.334094 C30.1559269,91.7202926 29.579881,89.2931913 28.2357739,86.86609 C23.8194221,79.5847862 19.5950856,71.9300822 17.4829173,63.5285778 C15.1787337,54.1935729 15.370749,45.045268 19.4030703,36.2703634 C24.2034527,25.8151579 32.8441411,19.4673546 43.9810283,16.6668531 C63.9506192,11.6259505 84.1122254,11.8126505 104.081816,17.0402533 C115.026688,19.8407548 123.667377,26.001858 128.659774,36.2703634 C133.076126,45.7920684 132.884111,55.5004735 129.427836,65.0221786 C127.123652,71.556682 123.667377,77.7177852 120.211101,83.6921884 C117.906918,87.7995905 117.138857,91.9069927 118.482964,96.5744952 C121.171178,106.0962 121.555208,115.617905 117.522887,124.95291 C113.874597,133.354415 108.690183,140.635718 100.049495,144.929821 C95.6331433,147.170222 90.8327609,147.917022 85.8403631,147.917022 C84.1122254,147.917022 82.5761031,147.917022 80.8479654,147.917022 C80.8479654,147.917022 80.8479654,147.917022 80.8479654,147.917022 Z M109,51.4588515 C108.430967,48.626801 108.051611,45.7947505 106.913545,43.1515034 C104.258057,36.7321889 98.5677243,34.2777452 92.1186812,33.5225317 C81.8760832,32.2009081 71.4438075,31.0680879 61.0115318,33.144925 C55.7005551,34.2777452 50.1999007,35.0329586 44.8889239,36.5433856 C40.1469805,38.0538125 36.7327811,41.4522731 35.5947147,46.3611606 C33.887615,54.4797054 35.9740702,61.8430367 40.3366582,68.6399579 C41.4747246,70.5279916 43.5611798,71.2832051 45.8373126,70.9055983 C47.3547346,70.5279916 48.8721565,69.9615815 50.3895784,69.3951714 C57.0282993,66.5631209 63.8566979,64.8638906 71.2541298,64.4862838 C79.5999503,64.2974805 87.7560931,65.9967108 95.3432027,69.206368 C100.085146,71.2832051 103.309668,69.9615815 105.396123,65.2414973 C107.482578,61.0878232 108.620645,56.3677391 109,51.4588515 Z" id="Shape" transform="translate(74.000000, 80.500000) rotate(-15.000000) translate(-74.000000, -80.500000) "></path>
                <g id="noun_dumbell_2023814" transform="translate(222.583297, 220.537576) rotate(-345.000000) translate(-222.583297, -220.537576) translate(142.083297, 177.537576)">
                    <path d="M154.983988,18.5741868 L149.040918,18.5741868 C147.955165,18.5741868 146.957987,18.8858534 146.069384,19.4241868 L146.069384,15.5425201 C146.069384,12.1991868 143.412146,9.45085344 140.157745,9.45085344 L134.243248,9.45085344 C133.157495,9.45085344 132.160317,9.79085344 131.271713,10.3008534 L131.271713,6.41918678 C131.271713,3.07585344 128.614476,0.355853442 125.357217,0.355853442 L119.411291,0.355853442 C116.151174,0.355853442 113.496794,3.07585344 113.496794,6.41918678 L113.496794,35.7725201 L48.2944691,35.7725201 L48.2944691,6.41918678 C48.2944691,3.07585344 45.6372315,0.355853442 42.3799725,0.355853442 L36.4369034,0.355853442 C33.1796444,0.355853442 30.5224068,3.07585344 30.5224068,6.41918678 L30.5224068,10.3008534 C29.6366609,9.79085344 28.6366253,9.45085344 27.5508723,9.45085344 L21.6363757,9.45085344 C18.3791167,9.45085344 15.7218791,12.1991868 15.7218791,15.5425201 L15.7218791,19.4241868 C14.8361332,18.8858534 13.8360975,18.5741868 12.7503445,18.5741868 L6.80727548,18.5741868 C3.55001647,18.5741868 0.892778869,21.2941868 0.892778869,24.6375201 L0.892778869,61.0741868 C0.892778869,64.4175201 3.55001647,67.1375201 6.80727548,67.1375201 L12.7503445,67.1375201 C13.8360975,67.1375201 14.8361332,66.8258534 15.7218791,66.2875201 L15.7218791,70.1691868 C15.7218791,73.5125201 18.3791167,76.2608534 21.6363757,76.2608534 L27.5508723,76.2608534 C28.6366253,76.2608534 29.6366609,75.9208534 30.5224068,75.4108534 L30.5224068,79.2925201 C30.5224068,82.6358534 33.1796444,85.3558534 36.4369034,85.3558534 L42.3799725,85.3558534 C45.6372315,85.3558534 48.2944691,82.6358534 48.2944691,79.2925201 L48.2944691,49.9391868 L113.496794,49.9391868 L113.496794,79.2925201 C113.496794,82.6358534 116.154032,85.3558534 119.411291,85.3558534 L125.351502,85.3558534 C128.611619,85.3558534 131.265999,82.6358534 131.265999,79.2925201 L131.265999,75.4108534 C132.154602,75.9208534 133.151781,76.2608534 134.237534,76.2608534 L140.15203,76.2608534 C143.409289,76.2608534 146.063669,73.5125201 146.063669,70.1691868 L146.063669,66.2875201 C146.952273,66.8258534 147.949451,67.1375201 149.035204,67.1375201 L154.978273,67.1375201 C158.238389,67.1375201 160.892779,64.4175201 160.892779,61.0741868 L160.892779,24.6375201 C160.898484,21.2941868 158.241247,18.5741868 154.983988,18.5741868 Z" id="Path"></path>
                </g>
            </g>
        </g>
    </g>
</svg>