<?xml version="1.0" encoding="UTF-8"?>
<svg width="" height="30px" viewBox="0 0 582 171" version="1.1" xmlns="http://www.w3.org/2000/svg" xmlns:xlink="http://www.w3.org/1999/xlink">
    <!-- Generator: Sketch 57.1 (83088) - https://sketch.com -->
    <title>logo</title>
    <desc>Created with Sketch.</desc>
    <defs>
        <path d="M126.369037,57.2324732 C128.068266,57.2142247 129.613179,58.1922893 130.324735,59.7113256 C131.095573,61.356955 130.855167,63.1637961 129.876418,64.3887125 L54.5127494,158.707275 C53.993727,159.25644 53.5424246,159.618732 52.9053211,159.915818 C51.6300901,160.507794 50.2452022,160.534233 49.0056996,159.87673 C47.2057414,159.017062 46.0701909,156.924288 46.6338695,154.813265 L60.1978831,102.899232 L4.38729564,103.070663 C2.68806642,103.088912 1.14315377,102.110847 0.431598919,100.59181 C-0.279944247,99.0727679 -0.0988338699,97.1393401 0.879915071,95.9144237 L76.3028793,1.72244814 C77.545605,0.0667635184 79.7638566,-0.500649828 81.6231106,0.485604741 C83.5505915,1.28607436 84.5586193,3.43804699 84.1224634,5.48987144 L70.5584498,57.4039042 L126.369037,57.2324732 Z" id="path-1"></path>
        <path d="M126.575243,59.0562476 C128.274472,59.0379991 141.613179,66.1922893 142.325643,67.710902 C143.095573,69.356955 142.855167,71.1637961 141.876418,72.3887125 L66.5127494,166.707275 C65.993727,167.25644 65.5424246,167.618732 64.9053211,167.915818 C63.6300901,168.507794 62.2452022,168.534233 61.0056996,167.87673 C59.2057414,167.017062 48.0701909,157.924288 48.6338695,155.813265 L72.9088969,116.433888 L20.0438415,116.433888 C18.3446123,116.452136 1.47197918,100.218291 2.45072812,98.9933748 C37.7756559,53.8049587 62.99506,21.7732651 78.1089405,2.89829409 C80.5791079,-0.186574589 91.7638566,7.49935017 93.6231106,8.48560474 C95.5505915,9.28607436 96.5586193,11.438047 96.1224634,13.4898714 L82.5584498,65.4039042 L126.575243,59.0562476 Z" id="path-3"></path>
    </defs>
    <g id="Logo" stroke="none" stroke-width="1" fill="none" fill-rule="evenodd">
        <g id="Artboard-Copy-3" transform="translate(-1070.000000, -788.000000)">
            <g id="logo" transform="translate(1057.000000, 771.000000)">
                <g id="Group-8">
                    <g id="Group-7" transform="translate(13.204007, 17.084412)">
                        <mask id="mask-2" fill="white">
                            <use xlink:href="#path-1"></use>
                        </mask>
                        <use id="Combined-Shape" fill="#01FFC8" fill-rule="nonzero" xlink:href="#path-1"></use>
                        <mask id="mask-4" fill="white">
                            <use xlink:href="#path-3"></use>
                        </mask>
                        <use id="Combined-Shape-Copy" stroke="#01FFC8" stroke-width="4" fill-rule="nonzero" xlink:href="#path-3"></use>
                    </g>
                    <g id="Group-3">
                        <g id="Group-2" transform="translate(194.124859, 0.000000)"></g>
                        <g id="Group-2-Copy-4" transform="translate(0.000000, 86.784000)">
                            <g id="Group" transform="translate(0.060101, 0.000000)">
                                <g id="Group-5">
                                    <g id="Path-2" transform="translate(0.000000, 0.963651)">
                                        <g id="noun_halftone-pattern_461484" transform="translate(0.939899, 0.036349)"></g>
                                    </g>
                                </g>
                            </g>
                        </g>
                    </g>
                </g>
                <path d="M198.564,166 L226.384,26.9 L311.128,26.9 L305.564,55.576 L254.632,55.576 L249.068,84.252 L292.296,84.252 L286.732,112.928 L243.504,112.928 L232.804,166 L198.564,166 Z M419.412,59 L398.44,166 L370.62,166 L370.62,152.304 L369.764,152.304 C365.198644,156.584021 359.955696,160.36465 354.035,163.646 C348.114304,166.92735 341.944032,168.568 335.524,168.568 C326.678622,168.568 320.258687,166.24969 316.264,161.613 C312.269313,156.97631 310.272,150.02138 310.272,140.748 C310.272,135.897309 310.842661,130.76136 311.984,125.34 L325.252,59 L359.492,59 L347.08,121.06 C346.651998,123.057343 346.259668,124.804993 345.903,126.303 C345.546332,127.801007 345.368,129.191994 345.368,130.476 C345.368,133.472015 346.152659,135.718993 347.722,137.217 C349.291341,138.715007 351.502652,139.464 354.356,139.464 C357.209348,139.464 359.99132,138.50101 362.702,136.575 C365.41268,134.64899 368.479983,131.617354 371.904,127.48 L385.172,59 L419.412,59 Z M427.116,122.344 C427.116,112.499951 428.899316,103.547707 432.466,95.487 C436.032685,87.426293 440.704971,80.5070289 446.483,74.729 C452.261029,68.9509711 458.752297,64.4570161 465.957,61.247 C473.161703,58.036984 480.330631,56.432 487.464,56.432 C494.026699,56.432 499.554978,57.5019893 504.049,59.642 C508.543022,61.7820107 512.180986,64.7066481 514.963,68.416 C517.745014,72.1253519 519.777994,76.4409754 521.062,81.363 C522.346006,86.2850246 522.988,91.5279722 522.988,97.092 C522.988,99.8026802 522.738336,102.51332 522.239,105.224 C521.739664,107.93468 521.169003,110.466988 520.527,112.821 C519.884997,115.175012 519.243003,117.243658 518.601,119.027 C517.958997,120.810342 517.424002,122.058663 516.996,122.772 L459.216,122.772 C459.501335,129.905369 461.712646,135.041318 465.85,138.18 C469.987354,141.318682 475.194635,142.888 481.472,142.888 C484.468015,142.888 487.60665,142.174674 490.888,140.748 C494.16935,139.321326 497.022655,137.752009 499.448,136.04 L511.432,157.44 C507.151979,160.436015 501.659367,163.039656 494.954,165.251 C488.248633,167.462344 480.473378,168.568 471.628,168.568 C465.065301,168.568 459.07336,167.498011 453.652,165.358 C448.23064,163.217989 443.558353,160.150687 439.635,156.156 C435.711647,152.161313 432.644344,147.310695 430.433,141.604 C428.221656,135.897305 427.116,129.477369 427.116,122.344 Z M461.784,102.228 L494.312,102.228 C494.597335,101.371996 494.811333,100.337673 494.954,99.125 C495.096667,97.9123273 495.168,96.6640064 495.168,95.38 C495.168,91.6706481 494.312009,88.6033455 492.6,86.178 C490.887991,83.7526545 487.749356,82.54 483.184,82.54 C479.046646,82.54 475.052019,84.1093176 471.2,87.248 C467.347981,90.3866824 464.209345,95.3799658 461.784,102.228 Z M560.652,168.568 C551.806622,168.568 545.529352,166.463688 541.82,162.255 C538.110648,158.046312 536.256,152.304036 536.256,145.028 C536.256,142.887989 536.362999,140.676678 536.577,138.394 C536.791001,136.111322 537.254663,133.472015 537.968,130.476 L560.652,17.056 L594.892,17.056 L571.78,131.76 C571.494665,132.901339 571.352,133.721664 571.352,134.221 L571.352,135.826 C571.352,137.823343 571.779996,139.214329 572.636,139.999 C573.492004,140.783671 574.490661,141.176 575.632,141.176 L577.451,141.176 C577.950336,141.176 578.627996,141.033335 579.484,140.748 L578.2,166 C576.202657,166.713337 573.741681,167.319664 570.817,167.819 C567.892319,168.318336 564.504019,168.568 560.652,168.568 Z" id="Fuel" fill="#FFFFFF" fill-rule="nonzero"></path>
            </g>
        </g>
    </g>
</svg>