<?xml version="1.0" standalone="no"?>
<!DOCTYPE svg PUBLIC "-//W3C//DTD SVG 20010904//EN"
 "http://www.w3.org/TR/2001/REC-SVG-20010904/DTD/svg10.dtd">
<svg version="1.0" xmlns="http://www.w3.org/2000/svg"
 width="684.000000pt" height="684.000000pt" viewBox="0 0 684.000000 684.000000"
 preserveAspectRatio="xMidYMid meet">
<metadata>
Created by potrace 1.11, written by Peter Selinger 2001-2013
</metadata>
<g transform="translate(0.000000,684.000000) scale(0.100000,-0.100000)"
fill="#000000" stroke="none">
<path d="M3664 6829 c-42 -12 -75 -48 -299 -329 -107 -135 -201 -252 -208
-260 -6 -8 -37 -47 -67 -85 -30 -38 -63 -79 -72 -90 -20 -25 -232 -289 -273
-341 -16 -21 -38 -47 -48 -58 -9 -12 -48 -59 -85 -106 -37 -47 -73 -92 -80
-100 -6 -8 -44 -55 -83 -104 -39 -49 -76 -94 -82 -101 -7 -7 -20 -23 -29 -36
-26 -37 -440 -553 -447 -559 -4 -3 -17 -19 -29 -37 -13 -18 -32 -42 -43 -55
-10 -13 -107 -133 -215 -268 -108 -135 -203 -254 -212 -265 -9 -11 -51 -63
-92 -115 -41 -52 -77 -97 -80 -100 -3 -3 -39 -48 -80 -100 -41 -52 -77 -97
-80 -100 -5 -4 -186 -231 -212 -265 -4 -5 -25 -31 -45 -56 -35 -42 -122 -150
-141 -174 -122 -154 -132 -171 -132 -234 0 -52 22 -100 62 -137 18 -17 53 -53
77 -80 66 -74 149 -160 242 -249 74 -72 122 -115 235 -216 64 -56 133 -100
166 -104 54 -7 387 -7 398 0 5 3 10 3 10 -2 0 -8 124 -7 147 1 7 3 13 2 13 -2
0 -7 737 -6 778 1 12 2 22 1 22 -2 0 -3 20 -5 45 -3 44 4 46 3 41 -21 -6 -35
-131 -513 -191 -734 -14 -50 -26 -100 -28 -110 -2 -10 -9 -38 -16 -63 -7 -25
-15 -53 -17 -64 -2 -10 -11 -44 -20 -75 -9 -31 -18 -64 -19 -73 -2 -9 -15 -61
-30 -115 -15 -54 -28 -105 -30 -113 -1 -8 -8 -35 -15 -59 -16 -59 -10 -120 15
-157 54 -83 259 -275 424 -399 133 -101 225 -116 333 -58 40 22 73 55 147 148
52 66 102 127 110 136 9 9 25 29 35 43 11 15 28 37 39 49 10 12 33 41 50 64
17 24 34 43 39 43 4 0 8 4 8 9 0 5 11 22 24 37 21 25 71 88 188 235 15 19 78
97 139 174 61 77 115 142 120 143 5 2 9 10 9 17 0 7 4 15 8 17 5 1 53 59 107
128 55 69 104 130 110 137 23 28 38 46 127 159 51 65 101 128 110 139 10 11
45 56 80 100 35 44 67 85 73 91 5 6 21 26 35 44 14 18 30 38 35 44 6 6 82 101
170 211 338 425 430 540 440 551 6 6 21 26 35 44 14 18 30 38 35 44 6 6 26 31
45 56 19 25 37 47 40 50 3 3 48 59 99 125 52 66 99 125 105 130 6 6 24 28 41
50 34 46 35 47 107 135 29 36 58 71 65 78 7 7 13 16 13 20 0 4 14 21 30 39 17
18 30 35 30 39 0 4 6 12 14 18 25 21 243 301 259 335 45 92 26 211 -44 274
-22 20 -43 37 -45 37 -2 0 -39 23 -81 50 -42 28 -83 50 -90 50 -7 0 -13 3 -13
8 0 4 -10 12 -23 18 -12 6 -81 41 -153 77 -171 87 -205 99 -284 97 -221 -5
-1552 -5 -1555 0 -2 3 16 83 41 176 24 93 46 178 49 189 2 11 21 81 40 155 20
74 38 148 41 163 2 16 7 33 10 39 5 8 19 57 39 143 3 11 34 130 70 265 36 135
67 256 70 270 2 14 8 37 14 53 6 15 8 27 6 27 -3 0 2 16 10 37 8 20 13 38 11
41 -3 2 1 21 9 41 8 20 17 47 19 61 3 14 9 41 14 61 13 53 6 124 -17 174 -21
46 -85 115 -106 115 -7 0 -18 7 -25 15 -7 8 -16 13 -20 10 -5 -3 -10 -1 -12 3
-4 9 -165 108 -194 118 -10 4 -30 15 -44 24 -32 21 -141 66 -205 84 -70 21
-125 26 -161 15z m507 -365 c38 -24 73 -44 78 -44 5 0 18 -12 29 -27 24 -36
21 -93 -8 -168 -6 -16 -11 -32 -11 -35 0 -8 -9 -46 -46 -185 -19 -71 -37 -141
-39 -155 -3 -14 -9 -38 -14 -55 -9 -31 -59 -219 -65 -245 -3 -14 -70 -271
-145 -555 -18 -66 -34 -128 -36 -138 -2 -10 -6 -28 -10 -40 -5 -12 -8 -26 -9
-32 -2 -24 -18 -81 -25 -90 -5 -5 -8 -14 -9 -20 0 -8 -10 -63 -16 -85 -12 -50
3 -47 -256 -48 -221 -1 -240 0 -235 16 6 19 124 467 131 495 2 10 7 27 10 37
3 10 8 28 10 39 3 12 7 31 11 44 3 12 7 32 10 44 2 12 9 34 14 48 5 14 7 25 4
25 -4 0 -2 6 3 13 6 6 11 19 11 27 0 8 8 40 17 70 9 30 18 64 20 76 3 11 18
72 35 135 17 63 33 125 36 139 2 14 7 32 10 40 3 8 46 170 95 360 100 388 108
416 120 447 8 21 10 21 109 -33 56 -31 133 -75 171 -100z m1624 -2164 c17 -8
37 -20 45 -26 8 -7 20 -13 25 -14 6 -1 42 -19 80 -41 95 -54 103 -59 161 -101
76 -55 72 -81 -31 -210 -41 -51 -85 -106 -97 -122 -13 -16 -28 -34 -33 -40 -6
-6 -44 -54 -85 -106 -41 -52 -79 -100 -85 -106 -5 -7 -20 -25 -32 -40 -31 -40
-116 -146 -128 -160 -5 -7 -20 -25 -32 -40 -54 -69 -159 -201 -170 -214 -15
-18 -66 -81 -108 -134 -32 -41 -187 -236 -239 -300 -17 -22 -39 -49 -48 -60
-21 -24 -258 -322 -303 -380 -16 -21 -35 -44 -40 -50 -6 -6 -35 -42 -65 -81
-30 -38 -57 -72 -60 -75 -3 -3 -21 -25 -40 -50 -19 -25 -37 -47 -40 -50 -3 -3
-21 -25 -40 -50 -19 -25 -41 -52 -49 -61 -9 -9 -25 -29 -35 -43 -11 -15 -27
-36 -35 -46 -26 -30 -40 -48 -181 -225 -74 -94 -139 -175 -145 -181 -14 -16
-34 -41 -75 -94 -19 -25 -39 -50 -45 -56 -13 -15 -32 -39 -75 -94 -19 -25 -41
-52 -47 -60 -15 -17 -352 -438 -391 -489 -245 -308 -249 -313 -299 -315 -31 0
-51 8 -104 46 -35 25 -75 56 -89 68 -14 12 -45 38 -69 58 -93 78 -114 102 -99
115 8 7 32 34 54 62 21 27 47 59 56 70 9 11 154 193 323 405 169 212 314 394
323 405 20 23 94 116 137 170 17 21 53 66 80 100 28 34 64 79 80 100 17 21 77
98 135 170 58 72 119 148 135 169 17 22 35 44 40 50 16 18 98 120 125 156 14
18 30 38 35 44 8 9 93 116 170 214 5 7 15 19 22 26 9 10 107 133 185 231 37
47 83 104 97 120 9 11 30 38 46 60 32 42 58 74 90 111 11 12 29 35 40 50 23
31 118 151 138 174 7 8 29 35 48 60 19 25 36 47 40 50 3 3 41 50 84 105 76 97
89 112 110 138 6 7 37 46 70 87 33 41 65 82 72 90 7 8 40 51 75 95 34 44 65
82 69 85 3 3 23 28 44 55 20 28 40 52 44 55 15 12 72 91 82 114 7 14 15 24 18
23 3 -2 20 -9 36 -17z m-3054 -1580 c19 0 48 1 64 3 17 1 40 -1 52 -5 12 -4
25 -3 28 1 6 11 45 2 45 -10 0 -11 -73 -295 -96 -374 -8 -27 -14 -51 -14 -52
0 -2 0 -7 0 -13 0 -7 -253 -10 -738 -10 -789 0 -748 -2 -798 45 -6 5 -35 30
-65 55 -114 96 -375 349 -362 351 5 1 417 3 916 4 500 2 911 6 914 9 3 3 9 4
13 1 4 -2 22 -4 41 -5z"/>
</g>
</svg>
